<svg width="15" height="14" viewBox="0 0 15 14" fill="none" xmlns="http://www.w3.org/2000/svg">
<path d="M7.14062 0C10.8156 0 13.2656 0.9625 13.2656 2.1875V2.625V3.5C13.7496 3.5 14.1406 3.89102 14.1406 4.375V6.125C14.1406 6.60898 13.7496 7 13.2656 7V11.375C13.2656 11.859 12.8746 12.25 12.3906 12.25V13.125C12.3906 13.609 11.9996 14 11.5156 14H10.6406C10.1566 14 9.76562 13.609 9.76562 13.125V12.25H4.51562V13.125C4.51562 13.609 4.12461 14 3.64062 14H2.76562C2.28164 14 1.89062 13.609 1.89062 13.125V12.25C1.40664 12.25 1.01562 11.859 1.01562 11.375V7C0.531641 7 0.140625 6.60898 0.140625 6.125V4.375C0.140625 3.89102 0.531641 3.5 1.01562 3.5V2.625V2.1875C1.01562 0.9625 3.46563 0 7.14062 0ZM2.76562 4.375V7C2.76562 7.48398 3.15664 7.875 3.64062 7.875H6.70312V3.5H3.64062C3.15664 3.5 2.76562 3.89102 2.76562 4.375ZM7.57812 7.875H10.6406C11.1246 7.875 11.5156 7.48398 11.5156 7V4.375C11.5156 3.89102 11.1246 3.5 10.6406 3.5H7.57812V7.875ZM3.20312 10.9375C3.43519 10.9375 3.65775 10.8453 3.82184 10.6812C3.98594 10.5171 4.07812 10.2946 4.07812 10.0625C4.07812 9.83044 3.98594 9.60788 3.82184 9.44378C3.65775 9.27969 3.43519 9.1875 3.20312 9.1875C2.97106 9.1875 2.7485 9.27969 2.58441 9.44378C2.42031 9.60788 2.32812 9.83044 2.32812 10.0625C2.32812 10.2946 2.42031 10.5171 2.58441 10.6812C2.7485 10.8453 2.97106 10.9375 3.20312 10.9375ZM11.0781 10.9375C11.3102 10.9375 11.5327 10.8453 11.6968 10.6812C11.8609 10.5171 11.9531 10.2946 11.9531 10.0625C11.9531 9.83044 11.8609 9.60788 11.6968 9.44378C11.5327 9.27969 11.3102 9.1875 11.0781 9.1875C10.8461 9.1875 10.6235 9.27969 10.4594 9.44378C10.2953 9.60788 10.2031 9.83044 10.2031 10.0625C10.2031 10.2946 10.2953 10.5171 10.4594 10.6812C10.6235 10.8453 10.8461 10.9375 11.0781 10.9375ZM9.76562 2.1875C9.76562 1.94687 9.56875 1.75 9.32812 1.75H4.95312C4.7125 1.75 4.51562 1.94687 4.51562 2.1875C4.51562 2.42812 4.7125 2.625 4.95312 2.625H9.32812C9.56875 2.625 9.76562 2.42812 9.76562 2.1875Z" fill="white"/>
</svg>
