<svg width="36" height="36" viewBox="0 0 36 36" fill="none" xmlns="http://www.w3.org/2000/svg">
<path d="M18 0C27.45 0 33.75 2.475 33.75 5.625V6.75V9C34.9945 9 36 10.0055 36 11.25V15.75C36 16.9945 34.9945 18 33.75 18V29.25C33.75 30.4945 32.7445 31.5 31.5 31.5V33.75C31.5 34.9945 30.4945 36 29.25 36H27C25.7555 36 24.75 34.9945 24.75 33.75V31.5H11.25V33.75C11.25 34.9945 10.2445 36 9 36H6.75C5.50547 36 4.5 34.9945 4.5 33.75V31.5C3.25547 31.5 2.25 30.4945 2.25 29.25V18C1.00547 18 0 16.9945 0 15.75V11.25C0 10.0055 1.00547 9 2.25 9V6.75V5.625C2.25 2.475 8.55 0 18 0ZM6.75 11.25V18C6.75 19.2445 7.75547 20.25 9 20.25H16.875V9H9C7.75547 9 6.75 10.0055 6.75 11.25ZM19.125 20.25H27C28.2445 20.25 29.25 19.2445 29.25 18V11.25C29.25 10.0055 28.2445 9 27 9H19.125V20.25ZM7.875 28.125C8.47174 28.125 9.04403 27.8879 9.46599 27.466C9.88795 27.044 10.125 26.4717 10.125 25.875C10.125 25.2783 9.88795 24.706 9.46599 24.284C9.04403 23.8621 8.47174 23.625 7.875 23.625C7.27826 23.625 6.70597 23.8621 6.28401 24.284C5.86205 24.706 5.625 25.2783 5.625 25.875C5.625 26.4717 5.86205 27.044 6.28401 27.466C6.70597 27.8879 7.27826 28.125 7.875 28.125ZM28.125 28.125C28.7217 28.125 29.294 27.8879 29.716 27.466C30.1379 27.044 30.375 26.4717 30.375 25.875C30.375 25.2783 30.1379 24.706 29.716 24.284C29.294 23.8621 28.7217 23.625 28.125 23.625C27.5283 23.625 26.956 23.8621 26.534 24.284C26.1121 24.706 25.875 25.2783 25.875 25.875C25.875 26.4717 26.1121 27.044 26.534 27.466C26.956 27.8879 27.5283 28.125 28.125 28.125ZM24.75 5.625C24.75 5.00625 24.2438 4.5 23.625 4.5H12.375C11.7562 4.5 11.25 5.00625 11.25 5.625C11.25 6.24375 11.7562 6.75 12.375 6.75H23.625C24.2438 6.75 24.75 6.24375 24.75 5.625Z" fill="currentColor"/>
</svg>
