<svg width="18" height="16" viewBox="0 0 18 16" fill="none" xmlns="http://www.w3.org/2000/svg">
<path d="M2.50938 1.37502C2.18125 2.18439 2 3.06877 2 4.00002C2 4.93127 2.18125 5.81564 2.50938 6.62502C2.71563 7.13752 2.46875 7.71877 1.95625 7.92814C1.44375 8.13752 0.8625 7.88752 0.653125 7.37502C0.23125 6.33127 0 5.19064 0 4.00002C0 2.80939 0.23125 1.66877 0.653125 0.625019C0.8625 0.112519 1.44375 -0.134356 1.95625 0.0718944C2.46875 0.278144 2.71563 0.862519 2.50938 1.37502ZM17.3469 0.625019C17.7687 1.66877 18 2.80939 18 4.00002C18 5.19064 17.7687 6.33127 17.3469 7.37502C17.1406 7.88752 16.5563 8.13439 16.0438 7.92814C15.5313 7.72189 15.2844 7.13752 15.4906 6.62502C15.8188 5.81564 16 4.93127 16 4.00002C16 3.06877 15.8188 2.18439 15.4906 1.37502C15.2844 0.862519 15.5313 0.281269 16.0438 0.0718944C16.5563 -0.137481 17.1375 0.112519 17.3469 0.625019ZM11 4.00002C11 4.74064 10.5969 5.38752 10 5.73127V15C10 15.5531 9.55313 16 9 16C8.44687 16 8 15.5531 8 15V5.73127C7.40312 5.38439 7 4.74064 7 4.00002C7 2.89689 7.89687 2.00002 9 2.00002C10.1031 2.00002 11 2.89689 11 4.00002ZM5.33125 2.40002C5.11875 2.88752 5 3.42814 5 4.00002C5 4.57189 5.11875 5.11252 5.33125 5.60002C5.55313 6.10627 5.32188 6.69689 4.81563 6.91564C4.30938 7.13439 3.71875 6.90627 3.5 6.40002C3.17812 5.66252 3 4.85002 3 4.00002C3 3.15002 3.17812 2.33752 3.5 1.60002C3.72187 1.09377 4.30938 0.862519 4.81563 1.08439C5.32188 1.30627 5.55313 1.89377 5.33125 2.40002ZM14.5 1.60002C14.8219 2.33752 15 3.15002 15 4.00002C15 4.85002 14.8219 5.66252 14.5 6.40002C14.2781 6.90627 13.6906 7.13752 13.1844 6.91564C12.6781 6.69377 12.4469 6.10627 12.6687 5.60002C12.8812 5.11252 13 4.57189 13 4.00002C13 3.42814 12.8812 2.88752 12.6687 2.40002C12.4469 1.89377 12.6781 1.30314 13.1844 1.08439C13.6906 0.865644 14.2812 1.09377 14.5 1.60002Z" fill="currentColor"/>
</svg>
