<svg width="17" height="16" viewBox="0 0 17 16" fill="none" xmlns="http://www.w3.org/2000/svg">
<path d="M8.96875 1.5C5.37813 1.5 2.46875 4.40938 2.46875 8V9.25C2.46875 9.66562 2.13437 10 1.71875 10C1.30312 10 0.96875 9.66562 0.96875 9.25V8C0.96875 3.58125 4.55 0 8.96875 0C13.3875 0 16.9688 3.58125 16.9688 8V12.5031C16.9688 14.0219 15.7375 15.2531 14.2156 15.2531L10.7688 15.25C10.5094 15.6969 10.025 16 9.46875 16H8.46875C7.64062 16 6.96875 15.3281 6.96875 14.5C6.96875 13.6719 7.64062 13 8.46875 13H9.46875C10.025 13 10.5094 13.3031 10.7688 13.75L14.2188 13.7531C14.9094 13.7531 15.4688 13.1938 15.4688 12.5031V8C15.4688 4.40938 12.5594 1.5 8.96875 1.5ZM5.46875 6.5H5.96875C6.52187 6.5 6.96875 6.94688 6.96875 7.5V11C6.96875 11.5531 6.52187 12 5.96875 12H5.46875C4.36562 12 3.46875 11.1031 3.46875 10V8.5C3.46875 7.39687 4.36562 6.5 5.46875 6.5ZM12.4688 6.5C13.5719 6.5 14.4688 7.39687 14.4688 8.5V10C14.4688 11.1031 13.5719 12 12.4688 12H11.9688C11.4156 12 10.9688 11.5531 10.9688 11V7.5C10.9688 6.94688 11.4156 6.5 11.9688 6.5H12.4688Z" fill="currentColor"/>
</svg>
